<svg enable-background="new 0 0 697 57" height="63" viewBox="0 0 697 63" width="697" xmlns="http://www.w3.org/2000/svg">
	<path d="m9.075 9.302h-9.075v-8.579h26.638v8.579h-9.03v47.994h-8.533zm32.411 24.019v23.975h-8.533v-56.573h8.533v24.021h10.294v-24.021h8.533v56.573h-8.533v-23.975zm27.156 23.975v-56.618h24.291v8.578h-15.758v15.441h11.514v8.579h-11.514v15.441h15.758v8.578h-24.291z" fill="#bcbec0"/>
	<path d="m121.17 33.321v23.975h-8.533v-56.573h8.533v24.021h10.294v-24.021h8.533v56.573h-8.533v-23.975zm40.611 24.607c-3.763 0-6.953-1.31-9.572-3.928-2.619-2.619-3.928-5.794-3.928-9.526v-43.751h8.353v43.66c0 1.354.481 2.506 1.445 3.454.963.948 2.122 1.422 3.477 1.422s2.505-.474 3.454-1.422 1.423-2.1 1.423-3.454v-43.66h8.895v43.751c0 3.792-1.325 6.983-3.974 9.571-2.65 2.589-5.841 3.883-9.573 3.883zm30.362-.632h-8.533v-56.618h12.245l7.953 40.672 7.634-40.672h11.764v56.618h-8.533v-35.578l-7.404 35.578h-6.863l-8.263-35.488zm49.006-13.003-2.074 13.003h-8.885l9.618-56.573h11.738l9.481 56.573h-8.973l-1.996-13.003zm4.766-30.612-3.161 22.305h6.321zm31.975-13.003 11.324 38.051v-38.051h8.533v56.618h-9.166l-11.739-36.256v36.256h-8.533v-56.618z" fill="#808285"/>
	<path d="m330.906.723c4.154 0 7.464 1.31 9.933 3.929 2.287 2.498 3.432 5.688 3.432 9.571v8.218c0 3.732-1.303 6.923-3.906 9.571-2.604 2.649-5.756 3.974-9.459 3.974h-4.921v21.311h-8.533v-56.574zm5.102 13.635c0-1.475-.444-2.664-1.332-3.567-.888-.902-2.07-1.354-3.544-1.354h-5.147v18.105h5.147c1.354 0 2.506-.481 3.454-1.444.948-.964 1.422-2.122 1.422-3.477zm27.814-13.635c4.756 0 8.247 1.31 10.475 3.929 1.957 2.287 2.935 5.479 2.935 9.571v8.218c0 4.003-1.521 7.39-4.561 10.158l6.319 24.697h-9.227l-5.174-21.311c-.241 0-.496 0-.768 0h-4.921v21.311h-8.533v-56.573zm5.102 13.635c0-3.28-1.626-4.922-4.876-4.922h-5.147v18.105h5.147c1.354 0 2.506-.481 3.454-1.444.948-.964 1.423-2.122 1.423-3.477v-8.262zm29.285-14.358c3.763 0 6.961 1.325 9.595 3.974s3.95 5.84 3.95 9.572v30.882c0 3.764-1.324 6.961-3.973 9.595-2.649 2.635-5.84 3.951-9.572 3.951-3.763 0-6.953-1.324-9.571-3.974-2.619-2.648-3.929-5.839-3.929-9.572v-30.882c0-3.763 1.324-6.961 3.974-9.595 2.649-2.634 5.824-3.951 9.526-3.951zm5.5 13.365c0-1.354-.474-2.506-1.422-3.454s-2.1-1.423-3.454-1.423-2.514.475-3.477 1.423c-.964.948-1.444 2.1-1.444 3.454v30.973c0 1.354.48 2.506 1.444 3.454.963.948 2.122 1.422 3.477 1.422s2.506-.474 3.454-1.422 1.422-2.1 1.422-3.454zm21.286-4.063h-9.076v-8.579h26.639v8.579h-9.029v47.994h-8.533v-47.994zm23.877 47.994v-56.618h24.29v8.578h-15.757v15.441h11.513v8.579h-11.513v15.441h15.757v8.578h-24.29zm39.391 0h-8.533v-56.573h8.533zm17.91-56.618 11.324 38.051v-38.051h8.533v56.618h-9.165l-11.739-36.256v36.256h-8.533v-56.618z" fill="#58595b"/>
	<path d="m554.573 44.293-2.074 13.003h-8.885l9.617-56.573h11.738l9.481 56.573h-8.973l-1.996-13.003zm4.482-30.612-3.16 22.305h6.32zm24.503-4.379h-9.075v-8.579h26.639v8.579h-9.03v47.994h-8.533v-47.994zm47.811 47.994h-23.252v-56.573h8.533v48.085h14.719zm13.713-13.003-2.073 13.003h-8.886l9.618-56.573h11.738l9.48 56.573h-8.973l-1.996-13.003zm4.482-30.612-3.161 22.305h6.321zm47.503 29.528c.061 3.943-.963 7.314-3.07 10.113-1.385 1.896-3.341 3.236-5.869 4.019-1.354.422-2.935.633-4.74.633-3.342 0-6.111-.828-8.308-2.483-1.837-1.354-3.289-3.198-4.357-5.531-1.068-2.332-1.693-5.004-1.874-8.014l8.127-.587c.361 3.298 1.234 5.688 2.619 7.17 1.023 1.119 2.197 1.649 3.521 1.589 1.866-.061 3.356-.979 4.471-2.757.57-.874.857-2.124.857-3.751 0-2.35-1.068-4.685-3.206-7.004-1.686-1.597-4.214-3.992-7.585-7.186-2.83-2.741-4.831-5.197-6.005-7.366-1.265-2.44-1.896-5.092-1.896-7.954 0-5.151 1.73-9.053 5.192-11.704 2.137-1.597 4.786-2.396 7.946-2.396 3.04 0 5.644.678 7.812 2.032 1.685 1.054 3.047 2.528 4.086 4.425 1.038 1.896 1.662 4.079 1.873 6.547l-8.172 1.489c-.241-2.317-.902-4.123-1.986-5.418-.783-.933-1.912-1.399-3.387-1.399-1.565 0-2.754.693-3.566 2.077-.662 1.114-.993 2.499-.993 4.153 0 2.59 1.113 5.223 3.341 7.901.842 1.024 2.106 2.229 3.793 3.612 1.986 1.655 3.296 2.814 3.928 3.477 2.106 2.107 3.732 4.185 4.876 6.23.542.964.978 1.852 1.31 2.664.811 2.018 1.233 3.824 1.262 5.419z" fill="#808285"/>
</svg>
